<svg
  width="64"
  height="16"
  viewBox="0 0 16.933333 4.2333333"
  version="1.1"
  xml:space="preserve"
  xmlns="http://www.w3.org/2000/svg"
  xmlns:svg="http://www.w3.org/2000/svg">
   <style>
      #text1 {
        fill: currentColor;
      }
      #text2 {
         fill: #3771c8;
      }
   </style>
   <g transform="matrix(0.98921368,0,0,0.98921368,0.05755346,0.02283084)">
      <path id="text2" d="m 12.532433,4.1425985 q -0.336391,0 -0.647489,-0.098641 -0.311098,-0.098641 -0.594375,-0.3035104 V 2.9538496 h 0.386976 l 0.08347,0.579199 q 0.164402,0.1011701 0.356625,0.1568136 0.192223,0.055644 0.414798,0.055644 0.376858,0 0.584257,-0.1669307 0.207399,-0.1694599 0.207399,-0.4426193 0,-0.2529253 -0.187165,-0.419856 Q 12.949759,2.5491691 12.469201,2.4404112 11.89759,2.3088901 11.596609,2.0407893 11.295628,1.7701592 11.295628,1.3604202 q 0,-0.2883348 0.151755,-0.51596761 0.154285,-0.22763277 0.427444,-0.35915393 0.273159,-0.13152115 0.637372,-0.13152115 0.386975,0 0.682898,0.11887489 0.298452,0.11634564 0.490675,0.28327634 V 1.4919414 H 13.298796 L 13.215336,0.96585674 Q 13.10152,0.87480364 12.93206,0.81410156 12.7626,0.75339946 12.512204,0.75339946 q -0.321216,0 -0.521027,0.16440145 -0.197281,0.16440149 -0.197281,0.43503149 0,0.2377498 0.189694,0.389505 0.189694,0.1492259 0.657606,0.2655716 0.581728,0.1441674 0.88018,0.4274437 0.300981,0.2807471 0.300981,0.6955446 0,0.2959226 -0.159343,0.5260846 -0.159343,0.2276328 -0.450207,0.3566247 -0.288335,0.1289919 -0.680369,0.1289919 z m 1.722421,-0.053114 V 3.7707983 l 0.412268,-0.070819 V 0.79892604 L 14.254854,0.72810695 V 0.40689182 h 2.726535 V 1.2921304 H 16.581767 L 16.526123,0.79133828 H 15.165385 V 1.9902042 h 1.358209 v 0.3920342 h -1.358209 v 1.3329164 h 1.441674 l 0.05564,-0.5083799 h 0.397093 v 0.8827093 z" />
      <path id="text1" d="m 1.6161845,4.1425985 q -0.5463187,0 -0.92064811,-0.240279 Q 0.3237362,3.6620405 0.13151297,3.2421845 -0.05818101,2.8197992 -0.05818101,2.2734805 v -0.048056 q 0,-0.5488479 0.19728174,-0.9712331 Q 0.33891172,0.83180633 0.7005949,0.59405654 1.0648073,0.35377751 1.5580117,0.35377751 q 0.3819172,0 0.6550765,0.10622862 0.2731593,0.10622863 0.4856166,0.2908641 V 1.4666488 H 2.440721 L 2.4154284,0.87986213 Q 2.2484977,0.75592874 2.051216,0.6876389 1.8539343,0.61681982 1.5580117,0.61681982 q -0.4021513,0 -0.69807386,0.20486949 Q 0.56654449,1.0240296 0.4046723,1.3857127 0.24532936,1.7448667 0.24532936,2.2203662 v 0.053114 q 0,0.4932044 0.16187219,0.8548876 0.16187219,0.3591539 0.46791181,0.5564356 0.30856884,0.1972818 0.74360034,0.1972818 0.2301621,0 0.4476778,-0.058173 0.2175158,-0.058173 0.3667417,-0.1542844 L 2.4584257,3.1131925 H 2.7138803 V 3.8466759 Q 2.4887768,3.9933726 2.2055004,4.0692502 1.9247534,4.1425985 1.6161845,4.1425985 Z m 2.8428803,0 q -0.3667417,0 -0.639901,-0.1745184 Q 3.5460044,3.7910324 3.3942493,3.4799342 3.2450233,3.1688361 3.2450233,2.7641556 v -0.083465 q 0,-0.4021512 0.149226,-0.7132494 0.1517551,-0.3110981 0.4223852,-0.4881458 0.2731593,-0.1770477 0.6373718,-0.1770477 0.3642124,0 0.6373717,0.1770477 0.2731594,0.1770477 0.4223853,0.4881458 0.1517552,0.3110982 0.1517552,0.7132494 v 0.083465 q 0,0.4046805 -0.1517552,0.7157786 Q 5.3645374,3.7910324 5.091378,3.9680801 4.820748,4.1425985 4.4590648,4.1425985 Z m 0,-0.2529253 q 0.2807471,0 0.4830873,-0.1492259 Q 5.1444923,3.5912214 5.2532502,3.3382961 5.3620081,3.0828415 5.3620081,2.7641556 v -0.083465 q 0,-0.3136274 -0.1112871,-0.5665527 Q 5.1419631,1.8586831 4.9370936,1.7094571 4.7347534,1.5577019 4.4540063,1.5577019 q -0.2858056,0 -0.4881459,0.1517552 Q 3.7635202,1.8586831 3.6547623,2.1141376 3.5485337,2.3670629 3.5485337,2.6806903 v 0.083465 q 0,0.3186859 0.1062286,0.5741405 0.1087579,0.2529253 0.3110981,0.4021512 0.2048695,0.1492259 0.4932044,0.1492262 z m 1.6465436,0.199811 v -0.220045 l 0.4122683,-0.03288 V 1.608287 L 6.1056084,1.5754067 V 1.3528324 H 6.7859775 L 6.81127,1.8435075 Q 6.9402619,1.5855237 7.1628362,1.4438856 7.3879397,1.3022474 7.6965086,1.3022474 q 0.4451485,0 0.6778398,0.2731593 0.2326912,0.2706301 0.2326912,0.849829 v 1.4113232 l 0.4122683,0.03288 v 0.220045 H 7.891261 v -0.220045 l 0.4122683,-0.03288 V 2.427765 q 0,-0.4754996 -0.1745185,-0.6702521 Q 7.9544924,1.5627604 7.630748,1.5627604 q -0.3389199,0 -0.5362017,0.189694 Q 6.8972646,1.9421484 6.821387,2.248188 v 1.5883709 l 0.4122683,0.03288 v 0.220045 z m 3.3639067,0 v -0.220045 l 0.4122683,-0.03288 V 1.59817 H 9.4265178 V 1.3528324 H 9.8817834 V 0.95068122 q 0,-0.40973899 0.2048696,-0.63484251 0.207399,-0.22510352 0.579199,-0.22510352 0.174518,0 0.356624,0.04805581 l -0.04047,0.24533754 q -0.131521,-0.0328803 -0.285805,-0.0328803 -0.247867,0 -0.379388,0.15681369 -0.131521,0.15681369 -0.131521,0.44261928 V 1.3528324 h 0.665193 V 1.59817 h -0.665193 v 2.2383889 l 0.437561,0.03288 v 0.220045 z" />
   </g>
</svg>