<?xml version="1.0" encoding="UTF-8" standalone="no"?>
<!-- Created with Inkscape (http://www.inkscape.org/) -->

<svg
   width="64"
   height="16"
   viewBox="0 0 16.933333 4.2333333"
   version="1.1"
   id="svg1"
   xmlns="http://www.w3.org/2000/svg"
   xmlns:svg="http://www.w3.org/2000/svg">
  <defs
     id="defs1" />
  <g
     id="layer1">
    <g
       id="text1"
       style="font-size:40.246px;font-family:'Noto Sans';-inkscape-font-specification:'Noto Sans, Normal';fill:#2c5aa0;stroke-width:0.264583"
       aria-label="ConfSE"
       transform="matrix(0.13218532,0,0,0.13218532,-4.8019889,-6.0554189)">
      <path
         style="fill:#1a1a1a"
         d="m 50.091833,51.057139 q -4.62829,0 -7.284525,3.098942 -2.656236,3.098942 -2.656236,8.491906 0,5.352717 2.455006,8.491905 2.495251,3.098942 7.445509,3.098942 1.891562,0 3.581894,-0.321968 1.690332,-0.321968 3.300172,-0.80492 v 3.139188 q -1.60984,0.60369 -3.340418,0.885412 -1.690332,0.281722 -4.064846,0.281722 -4.386814,0 -7.324771,-1.81107 -2.937958,-1.81107 -4.42706,-5.151488 -1.448856,-3.340417 -1.448856,-7.847969 0,-4.346568 1.569594,-7.64674 1.60984,-3.340418 4.708782,-5.191734 3.098941,-1.891562 7.526001,-1.891562 4.547798,0 7.928462,1.690332 l -1.448856,3.058696 q -1.328118,-0.60369 -2.978204,-1.086642 -1.60984,-0.482952 -3.541648,-0.482952 z m 31.391879,15.132496 q 0,5.352717 -2.736728,8.290675 -2.696482,2.937958 -7.324772,2.937958 -2.857466,0 -5.111242,-1.287872 -2.21353,-1.328118 -3.501402,-3.82337 -1.287872,-2.535498 -1.287872,-6.117391 0,-5.352718 2.696482,-8.25043 2.696482,-2.897712 7.324772,-2.897712 2.937958,0 5.151488,1.328118 2.253776,1.287872 3.501402,3.783124 1.287872,2.455006 1.287872,6.0369 z m -16.29963,0 q 0,3.823369 1.489102,6.077145 1.529348,2.21353 4.82952,2.21353 3.259926,0 4.789274,-2.21353 1.529348,-2.253776 1.529348,-6.077145 0,-3.82337 -1.529348,-5.996654 -1.529348,-2.173284 -4.82952,-2.173284 -3.300172,0 -4.789274,2.173284 -1.489102,2.173284 -1.489102,5.996654 z m 32.27727,-11.148142 q 3.863618,0 5.835668,1.891562 1.97206,1.851316 1.97206,6.0369 v 14.045853 h -3.50141 V 63.211431 q 0,-5.191734 -4.829516,-5.191734 -3.581894,0 -4.950258,2.0123 -1.368363,2.0123 -1.368363,5.795424 V 77.015808 H 87.077885 V 55.443953 h 2.857466 l 0.523198,2.937958 h 0.20123 q 1.046395,-1.690332 2.897711,-2.495252 1.851316,-0.845166 3.903862,-0.845166 z m 24.429328,3.139188 h -5.43321 v 18.835127 h -3.54165 V 58.180681 h -3.78312 v -1.650086 l 3.78312,-1.20738 v -1.247626 q 0,-4.185584 1.85132,-5.996654 1.85131,-1.851316 5.15148,-1.851316 1.28788,0 2.33427,0.241476 1.08664,0.20123 1.85132,0.482952 l -0.92566,2.776974 q -0.64394,-0.20123 -1.4891,-0.40246 -0.84517,-0.20123 -1.73058,-0.20123 -1.77082,0 -2.65624,1.20738 -0.84516,1.167134 -0.84516,3.702632 v 1.40861 h 5.43321 z"
         id="path4" />
      <path
         d="m 142.57712,69.328822 q 0,3.82337 -2.77698,5.956408 -2.77697,2.133038 -7.48575,2.133038 -2.41476,0 -4.46731,-0.362214 -2.05254,-0.362214 -3.42091,-1.00615 v -3.461156 q 1.44886,0.643936 3.5819,1.167134 2.17328,0.523198 4.4673,0.523198 3.21968,0 4.82952,-1.247626 1.65009,-1.247626 1.65009,-3.380664 0,-1.40861 -0.60369,-2.374514 -0.60369,-0.965903 -2.09279,-1.770823 -1.44886,-0.845166 -4.06485,-1.770824 -3.66239,-1.328118 -5.55395,-3.259926 -1.85131,-1.931808 -1.85131,-5.272226 0,-2.294022 1.16713,-3.903862 1.16713,-1.650086 3.21968,-2.535498 2.09279,-0.885412 4.78927,-0.885412 2.37452,0 4.34657,0.442706 1.97206,0.442706 3.5819,1.167134 l -1.12689,3.098942 q -1.4891,-0.643936 -3.25993,-1.086642 -1.73058,-0.442706 -3.62214,-0.442706 -2.69648,0 -4.06484,1.167134 -1.36837,1.126888 -1.36837,3.01845 0,1.448856 0.60369,2.41476 0.60369,0.965904 1.97206,1.730578 1.36836,0.764674 3.70263,1.650086 2.5355,0.925658 4.26607,2.0123 1.77083,1.046396 2.65624,2.535498 0.92566,1.489102 0.92566,3.742877 z m 21.85356,7.686986 H 148.37253 V 48.280165 h 16.05815 v 3.179434 h -12.43601 v 8.974858 h 11.71158 v 3.139188 h -11.71158 v 10.262729 h 12.43601 z"
         id="path5" />
    </g>
  </g>
</svg>
